# xmcd CD database file
#
# Track frame offsets:
#	150
#	9602
#	23170
#	36875
#	45635
#	59025
#	65087
#	68157
#	79765
#	88915
#	102475
#	113415
#	126182
#	132057
#	147770
#	160390
#	174137
#	187432
#	197252
#	213860
#	218617
#	230597
#	238387
#	253785
#	273897
#	282830
#	293102
#	301252
#	312585
#	323482
#	336517
#
# Disc length: 4661 seconds
#
# Revision: 2
# Processed by: cddbd v1.4b41PL1 Copyright (c) Steve Scherf et al.
# Submitted via: Feurio! 1.60 - http://www.feurio.com
#
DISCID=be12331f,d112331f
DTITLE=The Heather Brothers - A Slice of Saturday Night
DYEAR=1900
DGENRE=
TTITLE0=A Slice of Saturday Night
TTITLE1=Club A-Go-Go
TTITLE2=Waiting
TTITLE3=Saturday Chat
TTITLE4=Seventeen
TTITLE5=Don't touch Me
TTITLE6=Don't touch Me (reprise)
TTITLE7=Twiggy
TTITLE8=Cliff
TTITLE9=Love on our Side
TTITLE10=What do I do know?
TTITLE11=What do You do know?
TTITLE12=If You wanna have Fun
TTITLE13=The long Walk back
TTITLE14=Romance/Wham Bam
TTITLE15=The Boy of my Dreams
TTITLE16=It wouldnt't be Saturday Night without a Fight
TTITLE17=Eric's Hokey Cokey
TTITLE18=I Fancy You
TTITLE19=Sentimental Eyes
TTITLE20=Heartbreaker
TTITLE21=Eric's gonna keep doing
TTITLE22=Oh so bad
TTITLE23=Please don't tell me
TTITLE24=You're oh so...
TTITLE25=Lies
TTITLE26=Baby I love You
TTITLE27=P.E.
TTITLE28=Who'd be Seventeen
TTITLE29=Last Saturday Night
TTITLE30=A Slice of Saturday Night/Clug A-Go-Go (reprise)
EXTD=
EXTT0=
EXTT1=
EXTT2=
EXTT3=
EXTT4=
EXTT5=
EXTT6=
EXTT7=
EXTT8=
EXTT9=
EXTT10=
EXTT11=
EXTT12=
EXTT13=
EXTT14=
EXTT15=
EXTT16=
EXTT17=
EXTT18=
EXTT19=
EXTT20=
EXTT21=
EXTT22=
EXTT23=
EXTT24=
EXTT25=
EXTT26=
EXTT27=
EXTT28=
EXTT29=
EXTT30=
PLAYORDER=
